# xmcd
#
# Track frame offsets:
#	150
#	10826
#	21097
#	33789
#	44732
#	55808
#	69117
#	75162
#	84688
#	98712
#	109465
#	122823
#	141493
#	151092
#	159921
#
# Disc length: 2257 seconds
#
# Revision: 0
# Processed by: cddbd v1.5.2PL0 Copyright (c) Steve Scherf et al.
# Submitted via: audiograbber 1.83.01
#
DISCID=b308cf0f
DTITLE=Diverse kunstnere Country - Essential Bluegrass Anthology CD 1
DYEAR=2009
DGENRE=Bluegrass
TTITLE0=01 johnny cash you win again
TTITLE1=02 willie nelson broken promise
TTITLE2=03 frankie laine high noon
TTITLE3=04 roger miller king of the road
TTITLE4=t god who made honky tonk angles
TTITLE5=06 tex williams smoke smoke smoke
TTITLE6=07 nashville 10 singing my song
TTITLE7=08 donna frago stick and stones
TTITLE8=09 tom t hall week in a country jail
TTITLE9=10 don gibson oh lonesome me
TTITLE10=11 hank williams jambalaya
TTITLE11=San Quentin
TTITLE12=Six Days on the Road
TTITLE13=14 willie nelson one step beyond
TTITLE14=15 webb pierce in the jailhouse now
EXTD=
EXTT0=
EXTT1=
EXTT2=
EXTT3=
EXTT4=
EXTT5=
EXTT6=
EXTT7=
EXTT8=
EXTT9=
EXTT10=
EXTT11=
EXTT12=
EXTT13=
EXTT14=
PLAYORDER=
